/* XPM */
static char *symbol_xpm[] = {
/* columns rows colors chars-per-pixel */
"64 64 2 1",
". c Black",
"  c #FFFFFF",
/* pixels */
"                   ...                     ...                  ",
"                   ...                     ...                  ",
"                   ...                     ...                  ",
"                   ...                     ...                  ",
"      ......       ...                     ...                  ",
"      ......       ...                     ...                  ",
"      ..           ...                     ...                  ",
"     ...           ...                     ...                  ",
"     ......        ...                     ...                  ",
"     .......       ...                     ...                  ",
"     ..   ...      ...                     ...                  ",
"           ..      ...                     ...                  ",
"     ..    ..      ...                     ...                  ",
"     ...  ...      ...                     ...                  ",
"      ......       ...                     ...                  ",
"       ....        ...                     ...                  ",
"                   ...                     ...                  ",
"                   ...                     ...                  ",
"                   ...                     ...                  ",
"................................................................",
"................................................................",
"................................................................",
"                   ...                     ...                  ",
"                   ...                     ...                  ",
"                   ...                     ...                  ",
"                   ...                     ...                  ",
"                   ...                     ...                  ",
"                   ...        ....         ...       ....       ",
"                   ...       ......        ...      ......      ",
"                   ...      ...   ..       ...     ..   ..      ",
"                   ...      ..    ..       ...     ..    ..     ",
"                   ...            ..       ...     ..    ..     ",
"                   ...           ..        ...     ...  ...     ",
"                   ...          ...        ...      .......     ",
"                   ...         ...         ...       ... ..     ",
"                   ...        ...          ...           ..     ",
"                   ...       ..            ...     ..   ..      ",
"                   ...      ........       ...     .......      ",
"                   ...      ........       ...      .....       ",
"                   ...                     ...                  ",
"                   ...                     ...                  ",
"                   ...                     ...                  ",
"                   ...                     ...                  ",
"................................................................",
"................................................................",
"................................................................",
"                   ...                     ...                  ",
"                   ...                     ...                  ",
"                   ...                     ...                  ",
"                   ...                     ...                  ",
"                   ...                     ...                  ",
"                   ...                     ...                  ",
"                   ...                     ...                  ",
"                   ...                     ...                  ",
"                   ...                     ...                  ",
"                   ...                     ...                  ",
"                   ...                     ...                  ",
"                   ...                     ...                  ",
"                   ...                     ...                  ",
"                   ...                     ...                  ",
"                   ...                     ...                  ",
"                   ...                     ...                  ",
"                   ...                     ...                  ",
"                   ...                     ...                  "
};
