/* XPM */
static char *icon1_xpm[] = {
/* columns rows colors chars-per-pixel */
"32 32 2 1",
". c Black",
"  c #FFFFFF",
/* pixels */
"         ..          ..         ",
"         ..          ..         ",
"         ..          ..         ",
"         ..          ..         ",
"         ..          ..         ",
"         ..          ..         ",
"         ..          ..         ",
"         ..          ..         ",
"         ..          ..         ",
"         ..          ..         ",
"................................",
"................................",
"         ..          ..         ",
"         ..          ..         ",
"         ..          ..         ",
"         ..          ..         ",
"         ..          ..         ",
"         ..          ..         ",
"         ..          ..         ",
"         ..          ..         ",
"         ..          ..         ",
"................................",
"................................",
"         ..          ..         ",
"         ..          ..         ",
"         ..          ..         ",
"         ..          ..         ",
"         ..          ..         ",
"         ..          ..         ",
"         ..          ..         ",
"         ..          ..         ",
"         ..          ..         "
};
